<svg width="97" height="30" viewBox="0 0 97 30" fill="none" xmlns="http://www.w3.org/2000/svg">
<g clip-path="url(#clip0_172_852)">
<path d="M89.2482 0L68.4951 29.7321H74.8668L95.7277 0H89.2482Z" fill="white"/>
<path d="M75.5308 0L81.637 8.76106L78.4511 13.5398L69.0264 0H75.5308Z" fill="url(#paint0_linear_172_852)"/>
<path d="M89.8676 29.7345L83.0977 20.0442L86.2835 15.3982L96.2392 29.7345H89.8676Z" fill="url(#paint1_linear_172_852)"/>
<path fill-rule="evenodd" clip-rule="evenodd" d="M61.0616 0H66.6368V29.7321H61.0616V28.6216C59.4514 29.5004 57.6028 30 55.6369 30C49.3956 30 44.3359 24.9632 44.3359 18.75C44.3359 12.5368 49.3956 7.5 55.6369 7.5C57.6028 7.5 59.4514 7.99967 61.0616 8.87838V0ZM55.5774 25.0624C59.1124 25.0624 61.9781 22.2097 61.9781 18.6907C61.9781 15.1718 59.1124 12.3191 55.5774 12.3191C52.0425 12.3191 49.1768 15.1718 49.1768 18.6907C49.1768 22.2097 52.0425 25.0624 55.5774 25.0624Z" fill="white"/>
<path d="M44.8908 0L24.1592 29.7321H30.6586L51.3702 0H44.8908Z" fill="white"/>
<path d="M30.6635 0L37.1679 9.02655L33.5838 14.0708L23.8936 0H30.6635Z" fill="url(#paint2_linear_172_852)"/>
<path fill-rule="evenodd" clip-rule="evenodd" d="M16.7257 0H22.3009V29.7321H16.7257V28.6216C15.1155 29.5004 13.2669 30 11.3011 30C5.05965 30 0 24.9632 0 18.75C0 12.5368 5.05965 7.5 11.3011 7.5C13.2669 7.5 15.1155 7.99967 16.7257 8.87838V0ZM11.2415 25.0624C14.7765 25.0624 17.6421 22.2097 17.6421 18.6907C17.6421 15.1718 14.7765 12.3191 11.2415 12.3191C7.70658 12.3191 4.84094 15.1718 4.84094 18.6907C4.84094 22.2097 7.70658 25.0624 11.2415 25.0624Z" fill="white"/>
</g>
<defs>
<linearGradient id="paint0_linear_172_852" x1="74.0706" y1="1.85841" x2="82.8118" y2="12.4111" gradientUnits="userSpaceOnUse">
<stop stop-color="white"/>
<stop offset="1" stop-color="white" stop-opacity="0.55"/>
</linearGradient>
<linearGradient id="paint1_linear_172_852" x1="91.3277" y1="27.4778" x2="80.588" y2="12.9995" gradientUnits="userSpaceOnUse">
<stop stop-color="#6966FF"/>
<stop offset="1" stop-color="#6966FF" stop-opacity="0.36"/>
</linearGradient>
<linearGradient id="paint2_linear_172_852" x1="29.2033" y1="1.93129" x2="38.2649" y2="13.012" gradientUnits="userSpaceOnUse">
<stop stop-color="white"/>
<stop offset="1" stop-color="white" stop-opacity="0.55"/>
</linearGradient>
<clipPath id="clip0_172_852">
<rect width="96.3717" height="30" fill="white"/>
</clipPath>
</defs>
</svg>
